<svg xmlns="http://www.w3.org/2000/svg" xmlns:xlink="http://www.w3.org/1999/xlink" width="122" height="94" viewBox="0 0 122 94"><defs><filter id="b" width="200%" height="200%" x="-50%" y="-50%" filterUnits="objectBoundingBox"><feOffset dx="7" dy="-10" in="SourceAlpha" result="shadowOffsetInner1"/><feComposite in="shadowOffsetInner1" in2="SourceAlpha" k2="-1" k3="1" operator="arithmetic" result="shadowInnerInner1"/><feColorMatrix in="shadowInnerInner1" values="0 0 0 0 0 0 0 0 0 0 0 0 0 0 0 0 0 0 0.1 0"/></filter><path id="a" d="M144.45 104a59 59 0 000-118c-32.58 0-29.85 27.68-29.85 60.26 0 32.59-2.73 57.74 29.85 57.74z"/></defs><g fill="none" fill-rule="evenodd" transform="translate(-98 2)"><g transform="rotate(-90 159 45)"><use fill="#2ECE53" xlink:href="#a"/><use fill="#000" filter="url(#b)" xlink:href="#a"/><use stroke="#0E1320" stroke-width="4" xlink:href="#a"/></g><circle cx="139" cy="38" r="7" fill="#000"/><circle cx="183" cy="38" r="7" fill="#000"/><g fill="#FFF" transform="translate(112 10)"><circle cx="2" cy="28" r="2"/><path d="M27.73 5.24c.48-.25.58-.78.2-1.2l-1.32-1.47a1.38 1.38 0 00-1.57-.3s-3.85 1.9-7.12 4.2c-3.27 2.3-3.25 2.37-4.52 3.52-3.54 3.18-9.2 11.1-9.2 11.1-.3.44-.27 1.13.11 1.55l1.33 1.47c.37.42.91.38 1.22-.08 0 0 2.34-3.68 5.13-6.92 2.8-3.24 1.77-2.06 3.77-4.2 2.96-3.16 11.97-7.67 11.97-7.67z"/></g><path fill="#000" d="M159.5 78.3A17.5 17.5 0 00177 60.8c0-9.66-7.31-4.34-16.98-4.34-9.66 0-18.02-5.32-18.02 4.35a17.5 17.5 0 0017.5 17.5z"/></g></svg>