<svg xmlns="http://www.w3.org/2000/svg" enable-background="new 0 0 28.5 28.5" viewBox="0 0 28.5 28.5"><path fill="#00c9db" fill-rule="evenodd" d="M24 17.3h-8.9c-.1 0-.3 0-.4.1L8 22.7c-.1.1-.1.2 0 .3 0 .1.1.1.2.1h15.9c1.6 0 3-1.4 2.9-3.1-.1-1.6-1.5-2.7-3-2.7" clip-rule="evenodd"/><g transform="translate(.64 .72)"><defs><filter id="a" width="16.1" height="22.3" x="0" y=".1" filterUnits="userSpaceOnUse"><feColorMatrix values="1 0 0 0 0 0 1 0 0 0 0 0 1 0 0 0 0 0 1 0"/></filter></defs><mask id="b" width="16.1" height="22.3" x="0" y=".1" maskUnits="userSpaceOnUse"><path fill="#fff" fill-rule="evenodd" d="M0 .1h16.1v22.3H0V.1z" clip-rule="evenodd" filter="url(#a)"/></mask><path fill="#0d55ff" fill-rule="evenodd" d="M16.1 11c-.1-.8-.5-1.6-1.1-2.1L4.7.7c-1.3-1-3.1-.8-4.1.5-1 1.3-.8 3.1.5 4.1l7.5 6-7.5 6c-1.3 1-1.5 2.8-.5 4.1 1 1.3 2.8 1.5 4.1.5L15 13.5c.7-.6 1.1-1.4 1.1-2.3V11" clip-rule="evenodd" mask="url(#b)"/></g><path fill="#7000f2" fill-rule="evenodd" d="M27 20.2a2.9 2.9 0 11-5.8 0 2.9 2.9 0 015.8 0" clip-rule="evenodd"/></svg>